<svg width="185" height="42" viewBox="0 0 185 42" fill="none" xmlns="http://www.w3.org/2000/svg">
<path d="M124.555 35.13H126.775C126.775 34.46 126.645 33.7 125.665 33.7C124.755 33.7 124.575 34.55 124.555 35.13ZM125.925 38.8999C124.225 38.8999 123.295 37.9199 123.295 36.1399C123.295 35.8299 123.365 33.0799 125.955 33.0799C126.735 33.0799 127.395 33.4 127.715 33.93C128.045 34.45 128.085 34.9999 128.085 35.4599V35.7599H124.545C124.545 36.0499 124.565 36.2699 124.605 36.4699C124.795 37.5599 125.405 38.09 126.465 38.09C127.065 38.09 127.445 37.9599 127.805 37.7599L127.975 38.04C127.585 38.56 126.815 38.91 125.935 38.91M107.435 33.4199C107.725 33.4399 108.155 33.42 108.575 33.34C108.935 33.28 109.055 33.23 109.325 33.09L109.435 33.16V33.61C109.725 33.4 110.295 33.07 111.075 33.07C112.085 33.07 112.755 33.55 112.945 34.41C112.995 34.62 113.025 35.1399 113.025 35.4199V37.07C113.025 38 113.065 38.26 113.235 38.43C113.325 38.51 113.535 38.59 113.785 38.59V38.8499C113.425 38.8299 112.775 38.7999 112.395 38.7999C111.875 38.7999 111.295 38.82 110.985 38.86V38.5999C111.265 38.5699 111.455 38.49 111.555 38.3899C111.715 38.2299 111.745 37.9 111.765 37.2C111.765 36.99 111.775 36.5499 111.775 36.2199C111.775 35.7999 111.775 35.36 111.725 34.93C111.635 34.2 111.255 33.86 110.525 33.86C110.015 33.86 109.705 33.9799 109.465 34.0999V37.0599C109.465 37.9899 109.505 38.2499 109.675 38.4199C109.765 38.4999 109.985 38.5899 110.225 38.5799V38.84C109.755 38.82 109.195 38.79 108.835 38.79C108.085 38.79 107.845 38.8099 107.415 38.8499V38.5799C107.655 38.5799 107.895 38.49 108.025 38.34C108.195 38.15 108.205 37.6599 108.205 36.7099V35.0999C108.205 34.3999 108.195 34.11 108.095 33.95C108.015 33.83 107.825 33.7399 107.435 33.7399V33.4199ZM119.855 33.1899C119.745 33.1899 119.485 33.1999 119.335 33.2099C119.045 33.2199 118.725 33.2399 118.515 33.2399C118.105 33.2399 117.485 33.2 117.295 33.18V33.5099C117.355 33.5099 117.685 33.48 117.845 33.84C117.915 33.98 117.975 34.1199 117.985 34.1699C118.015 34.2399 118.055 34.3299 118.065 34.3699L119.885 38.9399L120.445 38.84L122.445 34.3499C122.445 34.3499 122.485 34.2699 122.515 34.2099C122.545 34.1499 122.565 34.0799 122.695 33.8499C122.825 33.6199 123.075 33.5 123.275 33.52V33.18C123.065 33.2 122.565 33.2399 122.195 33.2399C122.005 33.2399 121.805 33.2299 121.615 33.2099C121.485 33.2099 121.235 33.19 121.105 33.18V33.5C121.285 33.5 121.495 33.5699 121.575 33.6499C121.625 33.6899 121.675 33.79 121.675 33.86C121.675 33.99 121.655 34.09 121.525 34.43L120.435 37.13C120.385 36.97 120.305 36.7399 120.205 36.4599L119.435 34.43C119.325 34.12 119.295 34 119.295 33.86C119.295 33.78 119.315 33.72 119.365 33.66C119.475 33.54 119.655 33.4899 119.855 33.4799V33.16V33.1899ZM145.575 38.27C145.405 38.48 144.965 38.91 144.045 38.91C143.125 38.91 142.685 38.5999 142.475 37.8999C142.385 37.6199 142.385 37.08 142.385 36.75C142.385 35.85 142.385 35.12 142.405 34.29V33.8999H141.665V33.68C141.965 33.56 142.175 33.44 142.375 33.29C142.815 32.95 143.095 32.53 143.425 31.93H143.675V33.2H145.585V33.8999H143.675V36.86C143.675 37.75 143.835 38.25 144.675 38.25C145.065 38.25 145.325 38.12 145.485 38.04L145.585 38.27H145.575ZM133.645 38.6399C133.645 38.0599 133.615 37.4599 133.575 37.1499H133.945C133.945 37.4699 134.035 37.6999 134.185 37.8899C134.415 38.16 134.685 38.27 135.185 38.27H135.255C135.875 38.27 136.195 38.0099 136.195 37.4899C136.195 37.0599 135.925 36.89 135.475 36.61L134.665 36.11C134.235 35.85 133.745 35.45 133.745 34.68C133.745 34.02 134.015 33.55 134.555 33.29C134.905 33.12 135.415 33.09 135.685 33.09C136.145 33.09 136.795 33.15 137.175 33.2299C137.145 33.38 137.145 33.78 137.145 33.91C137.145 34.03 137.145 34.56 137.165 34.66H136.795C136.795 34.42 136.735 34.1999 136.585 34.0099C136.445 33.8399 136.105 33.6899 135.695 33.6899C135.125 33.6899 134.835 33.93 134.835 34.41C134.835 34.8 135.135 34.9899 135.405 35.1499L135.435 35.1699L136.195 35.6199C136.705 35.9199 137.335 36.29 137.335 37.2C137.335 38.69 135.985 38.91 135.175 38.91C134.665 38.91 134.175 38.8499 133.655 38.6499M139.655 32.0999C139.215 32.0999 138.915 31.8199 138.915 31.3999C138.915 30.9799 139.225 30.6699 139.675 30.6699C140.125 30.6699 140.415 30.9499 140.415 31.3699C140.415 31.7899 140.105 32.09 139.655 32.09M138.255 38.5799C138.575 38.5399 138.765 38.51 138.905 38.34C139.085 38.14 139.095 37.6799 139.095 36.7099V35.0999C139.095 34.3999 139.085 34.06 138.985 33.91C138.895 33.78 138.745 33.73 138.345 33.7V33.38C138.585 33.42 139.165 33.36 139.645 33.27C139.885 33.23 140.115 33.15 140.265 33.07L140.385 33.2C140.355 33.56 140.335 34.38 140.335 35.43V37.0799C140.335 37.8199 140.355 38.17 140.455 38.32C140.555 38.4699 140.815 38.57 141.145 38.59V38.86C140.805 38.84 140.225 38.8099 139.725 38.8099C139.165 38.8099 138.565 38.8299 138.255 38.8699V38.5999V38.5799ZM115.635 32.09C115.195 32.09 114.895 31.8099 114.895 31.3899C114.895 30.9699 115.195 30.66 115.655 30.66C116.115 30.66 116.395 30.94 116.395 31.36C116.395 31.78 116.085 32.0799 115.635 32.0799M114.235 38.57C114.555 38.53 114.745 38.4999 114.895 38.3299C115.075 38.1299 115.085 37.67 115.085 36.7V35.09C115.085 34.39 115.075 34.0499 114.975 33.8999C114.885 33.7699 114.735 33.7199 114.325 33.6899V33.3699C114.565 33.4099 115.145 33.3499 115.625 33.2599C115.865 33.2199 116.105 33.1399 116.245 33.0599L116.365 33.1899C116.335 33.5499 116.315 34.3699 116.315 35.4199V37.07C116.315 37.8099 116.335 38.1599 116.435 38.3099C116.535 38.4599 116.795 38.5599 117.125 38.5799V38.8499C116.785 38.8299 116.205 38.7999 115.705 38.7999C115.145 38.7999 114.545 38.82 114.235 38.86V38.59V38.57ZM103.395 38.9199C101.785 38.9199 100.865 38.4199 100.495 37.3499C100.315 36.7999 100.315 36.15 100.315 35.59V32.57C100.315 31.65 100.275 31.51 100.105 31.36C100.035 31.29 99.8245 31.1999 99.5645 31.1899V30.88C99.9445 30.92 100.575 30.9399 100.965 30.9399C101.625 30.9399 101.975 30.92 102.405 30.88V31.2C102.145 31.19 101.945 31.2599 101.795 31.4199C101.615 31.6199 101.605 31.9599 101.605 32.9199V35.5999C101.605 37.1799 101.745 38.2199 103.555 38.2199C105.365 38.2199 105.495 37.1499 105.495 35.5299V32.57C105.495 31.65 105.455 31.51 105.285 31.36C105.185 31.27 104.965 31.1999 104.735 31.1899V30.88C105.095 30.89 105.545 30.93 105.985 30.93C106.425 30.93 106.825 30.9199 107.325 30.8699V31.1899C107.055 31.1799 106.855 31.26 106.715 31.41C106.535 31.61 106.525 31.95 106.525 32.91V35.1699C106.525 35.8899 106.525 36.71 106.295 37.34C105.905 38.41 104.985 38.91 103.395 38.91M128.725 33.38C129.105 33.4 129.525 33.3499 129.955 33.2799C130.295 33.2199 130.505 33.15 130.625 33.09L130.725 33.1399V33.63C130.995 33.38 131.425 33.11 132.025 33.11C132.465 33.11 132.765 33.2299 133.005 33.4599V33.6399L132.535 34.5099H132.305C132.155 34.2499 131.875 34 131.365 34C131.125 34 130.925 34.06 130.745 34.18V37.0299C130.745 37.7699 130.775 38.12 130.865 38.27C131.025 38.51 131.485 38.53 131.755 38.52V38.8299C131.365 38.8099 130.695 38.7799 130.215 38.7799C129.675 38.7799 129.135 38.79 128.685 38.84V38.5599C128.995 38.5399 129.175 38.46 129.295 38.32C129.475 38.12 129.475 37.66 129.475 36.7V35.09C129.475 34.39 129.475 34.09 129.365 33.95C129.275 33.82 129.065 33.7499 128.705 33.7399V33.3999L128.725 33.38ZM148.825 33.4799C148.665 33.4799 148.485 33.5299 148.365 33.6199C148.265 33.6899 148.245 33.8199 148.245 33.8899C148.245 34.0299 148.295 34.1699 148.395 34.4399L149.225 36.6399C149.345 36.9699 149.435 37.2399 149.495 37.4399L150.505 34.43C150.625 34.08 150.645 33.9999 150.645 33.8699C150.645 33.7999 150.595 33.7099 150.545 33.6499C150.445 33.5499 150.275 33.4999 150.075 33.4899V33.1699C150.195 33.1699 150.465 33.19 150.585 33.2C150.695 33.2 150.945 33.2299 151.135 33.2299C151.515 33.2299 152.035 33.1999 152.255 33.1699V33.5C152.105 33.52 151.755 33.4699 151.475 34.3299L149.315 40.11C149.005 40.94 148.605 41.9799 147.095 41.9799C146.495 41.9799 146.055 41.8299 145.745 41.5299V41.3699L146.275 40.7199H146.425C146.585 41.0699 146.885 41.2099 147.285 41.2099C147.975 41.2099 148.275 40.6199 148.745 39.3699L148.875 39.0299L147.035 34.3299C147.035 34.3299 146.995 34.23 146.965 34.16C146.915 34.03 146.815 33.8099 146.815 33.8099C146.705 33.5899 146.505 33.49 146.265 33.5V33.1699C146.615 33.1999 147.215 33.2299 147.525 33.2299C147.735 33.2299 148.035 33.21 148.305 33.2C148.455 33.2 148.705 33.18 148.825 33.18V33.4899V33.4799ZM62.8345 38.27C62.6645 38.48 62.2245 38.91 61.3045 38.91C60.3845 38.91 59.9445 38.5999 59.7345 37.8999C59.6445 37.6199 59.6445 37.08 59.6445 36.75C59.6445 35.85 59.6445 35.12 59.6645 34.29V33.8999H58.9245V33.68C59.2245 33.56 59.4345 33.44 59.6245 33.29C60.0645 32.95 60.3445 32.53 60.6745 31.93H60.9245V33.2H62.8445V33.8999H60.9245V36.86C60.9245 37.75 61.0845 38.25 61.9245 38.25C62.3145 38.25 62.5745 38.12 62.7345 38.04L62.8345 38.27ZM93.6845 38.11C94.0745 38.11 94.3345 38.05 94.6145 37.88V34.0999C94.5245 34.0099 94.1845 33.7199 93.4945 33.7199C92.3945 33.7199 91.8645 34.47 91.8645 36.02C91.8645 36.67 92.0645 38.11 93.6945 38.11M93.8945 30.27C94.2345 30.27 94.6845 30.21 95.2245 30.11C95.5345 30.06 95.7345 29.9999 95.8345 29.9599L95.9345 30.02C95.8845 30.49 95.8845 31.5399 95.8845 32.2799V36.88C95.8845 37.57 95.8945 37.99 95.9945 38.13C96.0845 38.26 96.2945 38.34 96.6445 38.34V38.6399C96.2945 38.6399 95.8645 38.6899 95.4345 38.7599C95.1445 38.8099 94.9145 38.8499 94.8045 38.91L94.6545 38.86V38.38C94.3745 38.59 93.8145 38.91 93.0745 38.91C91.5245 38.91 90.5245 37.8299 90.5245 36.1699C90.5245 35.6199 90.6345 35.0899 90.8245 34.6499C91.3045 33.6299 92.2845 33.04 93.5245 33.04C93.9745 33.04 94.3845 33.0999 94.6245 33.1499V31.95C94.6245 31.25 94.6145 30.8699 94.5145 30.7199C94.4345 30.5999 94.3245 30.55 93.8945 30.52V30.2599V30.27ZM85.9545 33.38C86.3445 33.4 86.7545 33.3499 87.1845 33.2799C87.5245 33.2199 87.7345 33.15 87.8545 33.09L87.9545 33.1399V33.63C88.2245 33.37 88.6545 33.11 89.2545 33.11C89.6945 33.11 89.9845 33.2299 90.2345 33.4599V33.6399L89.7645 34.5099H89.5345C89.3845 34.2499 89.1045 34 88.5945 34C88.3545 34 88.1545 34.06 87.9745 34.18V37.02C87.9745 37.76 88.0045 38.1099 88.0945 38.2599C88.2545 38.4999 88.7145 38.5199 88.9845 38.5099V38.82C88.5945 38.7999 87.9245 38.77 87.4445 38.77C86.9045 38.77 86.3645 38.7799 85.9145 38.8299V38.5499C86.2245 38.5299 86.4045 38.4499 86.5245 38.3099C86.7045 38.1099 86.7045 37.6499 86.7045 36.6899V35.0799C86.7045 34.3799 86.7045 34.08 86.5945 33.93C86.5045 33.8 86.2945 33.7299 85.9345 33.7199V33.38H85.9545ZM82.5945 33.6899C82.2545 33.6899 81.9945 33.78 81.7945 33.95C81.3445 34.33 81.1145 35.02 81.1145 36C81.1145 36.38 81.1845 38.2799 82.5745 38.2799C82.9045 38.2799 83.1745 38.1899 83.3645 38.0299C83.8245 37.6499 84.0445 36.9599 84.0445 35.9699C84.0445 35.5899 83.9745 33.7 82.5845 33.7M82.5145 38.9399C80.7945 38.9399 79.7645 37.87 79.7645 36.07C79.7645 34.67 80.5145 33.0499 82.6345 33.0499C84.3545 33.0499 85.3845 34.1199 85.3845 35.9199C85.3845 37.3099 84.6345 38.9399 82.5145 38.9399ZM76.0245 38.57C76.2545 38.57 76.4945 38.4899 76.6345 38.3299C76.8045 38.1299 76.8145 37.66 76.8145 36.7V33.8999H76.0745V33.5799C76.3845 33.4599 76.6545 33.32 76.8145 33.2C76.8145 32.7 76.8345 32.0599 76.8945 31.7099C77.1145 30.5499 77.8745 29.95 79.1545 29.95C79.7145 29.95 80.2545 30.1399 80.5745 30.4199L80.5945 30.54L80.0345 31.32H79.8945C79.7045 30.85 79.4145 30.59 78.9145 30.59C78.7445 30.59 78.4945 30.64 78.3445 30.79C78.1045 31.03 78.0645 31.3899 78.0645 32.1199V33.2099H79.3245V33.91H78.0645V37.04C78.0645 37.78 78.0945 38.15 78.1845 38.29C78.3445 38.53 78.8345 38.55 79.0845 38.54V38.84C78.6745 38.82 78.0245 38.79 77.5445 38.79C76.8445 38.79 76.3945 38.8099 76.0145 38.8499V38.5799L76.0245 38.57ZM69.0145 33.4199C69.3045 33.4399 69.7345 33.42 70.1545 33.34C70.5145 33.28 70.6445 33.23 70.9045 33.09L71.0145 33.16V33.61C71.3045 33.4 71.8745 33.07 72.6545 33.07C73.6645 33.07 74.3345 33.55 74.5245 34.41C74.5745 34.62 74.5945 35.1399 74.5945 35.4199V37.07C74.5945 38 74.6345 38.26 74.8045 38.43C74.8945 38.51 75.1045 38.59 75.3545 38.59V38.8499C74.9945 38.8299 74.3445 38.7999 73.9545 38.7999C73.4345 38.7999 72.8545 38.82 72.5445 38.86V38.5999C72.8245 38.5699 73.0145 38.49 73.1145 38.3899C73.2745 38.2299 73.3045 37.9 73.3345 37.2C73.3345 36.99 73.3445 36.5499 73.3445 36.2199C73.3445 35.7999 73.3445 35.36 73.2945 34.93C73.2145 34.2 72.8245 33.86 72.0945 33.86C71.5845 33.86 71.2745 33.9799 71.0345 34.0999V37.0599C71.0345 37.9899 71.0745 38.2499 71.2545 38.4199C71.3445 38.4999 71.5645 38.5899 71.7945 38.5799V38.84C71.3245 38.82 70.7645 38.79 70.4045 38.79C69.6545 38.79 69.4145 38.8099 68.9845 38.8499V38.5799C69.2245 38.5799 69.4645 38.49 69.5945 38.34C69.7645 38.15 69.7745 37.6599 69.7745 36.7099V35.0999C69.7745 34.3999 69.7645 34.11 69.6645 33.95C69.5845 33.83 69.3945 33.7399 69.0045 33.7399V33.4199H69.0145ZM53.7745 38.59C53.7745 38.02 53.7745 37.5399 53.7345 36.9599H54.0645C54.0645 37.3199 54.1745 37.5799 54.3245 37.7599C54.5645 38.0299 55.1145 38.1899 55.6345 38.1899C56.7045 38.1899 57.2045 37.78 57.2045 36.91C57.2045 36.16 56.7445 35.8499 56.1045 35.4199L56.0045 35.3499L55.3345 34.8999C54.3945 34.2799 53.9145 33.78 53.9145 32.79C53.9145 32.3 54.1045 30.7199 56.4645 30.7199C57.0645 30.7199 57.8445 30.7799 58.3145 30.8699C58.3145 30.9499 58.3045 31.31 58.3045 31.61C58.3045 31.97 58.3045 32.08 58.3145 32.52H58.0245C58.0245 32.14 57.9145 31.8899 57.7445 31.7299C57.5145 31.4999 57.0145 31.3999 56.4845 31.3999C55.2345 31.3999 55.0845 32.04 55.0845 32.52C55.0845 33.19 55.4245 33.4099 56.1645 33.8999L57.0245 34.4699C57.7545 34.9599 58.4445 35.4099 58.4445 36.6199C58.4445 38.6699 56.5345 38.8899 55.7145 38.8899C54.9745 38.8899 54.3745 38.7999 53.7745 38.5999M66.4145 35.9399C65.6645 36.1699 65.4045 36.29 65.1745 36.41C64.8445 36.57 64.6845 36.8999 64.6845 37.2999C64.6845 37.5999 64.7945 38.1199 65.5245 38.1199C65.7645 38.1199 66.1145 38.07 66.4145 37.86V35.95V35.9399ZM65.0645 38.8999C63.5345 38.8999 63.4145 37.74 63.4145 37.38C63.4145 36.96 63.5245 36.22 64.4945 35.86C65.5045 35.49 65.7145 35.4499 66.4045 35.2299V35.0499C66.4045 34.7199 66.4045 34.63 66.3345 34.43C66.2045 34.03 65.8145 33.7799 65.3045 33.7799C64.7945 33.7799 64.3545 34.07 64.1645 34.4799L63.8845 34.3099C64.0645 33.6699 64.7045 33.04 65.8145 33.04C66.6045 33.04 67.1145 33.26 67.4345 33.75C67.6745 34.13 67.6945 34.6599 67.6945 35.2099C67.6945 35.6999 67.6845 36.2399 67.6745 36.6699C67.6745 36.9699 67.6645 37.2299 67.6645 37.3899C67.6645 37.7899 67.7245 38.09 68.0545 38.09C68.1945 38.09 68.2145 38.0499 68.3345 37.9599L68.5145 38.1699C68.2145 38.5599 67.8845 38.88 67.3345 38.88C66.8845 38.88 66.5745 38.6699 66.4745 38.3099C66.2245 38.5699 65.7745 38.8899 65.0645 38.8899" fill="#A90533"/>
<path d="M53.2645 1.95996H54.4445L55.3845 6.84996C55.5445 7.81996 55.7445 8.77996 55.9045 9.74996H55.9545C56.1645 8.77996 56.3745 7.80996 56.5845 6.84996L57.8345 1.95996H58.8745L60.1245 6.84996C60.3445 7.79996 60.5645 8.77996 60.7845 9.74996H60.8345C60.9945 8.77996 61.1645 7.80996 61.3445 6.84996L62.2845 1.95996H63.3845L61.5245 10.94H60.1545L58.8045 5.52996C58.6445 4.82996 58.5045 4.18996 58.3645 3.48996H58.3145C58.1745 4.18996 58.0145 4.82996 57.8645 5.52996L56.5345 10.94H55.1845L53.2845 1.95996H53.2645Z" fill="#2E2D29"/>
<path d="M64.4345 8.49991V4.27991H65.5745V8.34991C65.5745 9.59991 65.9445 10.1299 66.8245 10.1299C67.5045 10.1299 67.9845 9.78991 68.6145 9.00991V4.28991H69.7345V10.9399H68.8045L68.7045 9.89991H68.6645C68.0445 10.6299 67.3945 11.0999 66.4745 11.0999C65.0645 11.0999 64.4345 10.1999 64.4345 8.49991Z" fill="#2E2D29"/>
<path d="M75.1745 2.91996H72.4645V1.95996H79.0345V2.91996H76.3245V10.94H75.1745V2.91996Z" fill="#2E2D29"/>
<path d="M78.1345 10.19L78.6945 9.43999C79.2745 9.90999 79.8545 10.23 80.6545 10.23C81.5345 10.23 81.9745 9.75999 81.9745 9.18999C81.9745 8.50999 81.1845 8.19999 80.4545 7.92999C79.5045 7.58999 78.4645 7.13999 78.4645 6.00999C78.4645 4.87999 79.3145 4.12 80.7545 4.12C81.5945 4.12 82.3145 4.46 82.8245 4.87L82.2945 5.58C81.8445 5.24 81.3645 4.99 80.7745 4.99C79.9345 4.99 79.5545 5.44 79.5545 5.95C79.5545 6.58 80.2845 6.80999 81.0345 7.09999C81.9945 7.45999 83.0645 7.84999 83.0645 9.10999C83.0645 10.19 82.2045 11.09 80.6245 11.09C79.6745 11.09 78.7745 10.69 78.1445 10.17" fill="#2E2D29"/>
<path d="M88.2945 9.31V7.46C86.0745 7.73 85.3045 8.28 85.3045 9.13C85.3045 9.88 85.8245 10.2 86.4845 10.2C87.1445 10.2 87.6445 9.89 88.2945 9.31ZM84.2145 9.21C84.2145 7.76 85.4645 7.03 88.2945 6.72C88.2945 5.87 88.0245 5.05 86.9245 5.05C86.1545 5.05 85.4645 5.40999 84.9345 5.75999L84.4945 4.98C85.1145 4.58 86.0445 4.12 87.1145 4.12C88.7445 4.12 89.4245 5.19999 89.4245 6.85999V10.94H88.4945L88.3945 10.15H88.3545C87.7245 10.67 86.9845 11.11 86.1545 11.11C85.0445 11.11 84.2145 10.41 84.2145 9.22" fill="#2E2D29"/>
<path d="M91.3745 4.28996H92.4945V10.94H91.3745V4.28996ZM91.1645 2.18996C91.1645 1.74996 91.5045 1.45996 91.9445 1.45996C92.3845 1.45996 92.7245 1.74996 92.7245 2.18996C92.7245 2.62996 92.3845 2.91996 91.9445 2.91996C91.5045 2.91996 91.1645 2.61996 91.1645 2.18996Z" fill="#2E2D29"/>
<path d="M54.1845 16.4099H55.3645L58.6045 22.0499L59.5745 23.9099H59.6245C59.5745 23.0099 59.4845 21.9899 59.4845 21.0499V16.4099H60.5645V25.3899H59.3845L56.1245 19.7399L55.1545 17.8899H55.1045C55.1745 18.7899 55.2545 19.7499 55.2545 20.6999V25.3999H54.1745V16.4199L54.1845 16.4099Z" fill="#2E2D29"/>
<path d="M67.0045 21.5299C67.0045 20.1899 66.4045 19.4599 65.3645 19.4599C64.4345 19.4599 63.5845 20.2099 63.4445 21.5299H67.0045ZM62.3445 22.0799C62.3445 19.8999 63.8145 18.5699 65.3245 18.5699C67.0245 18.5699 67.9845 19.7899 67.9845 21.6899C67.9845 21.9199 67.9745 22.1699 67.9445 22.3299H63.4545C63.5345 23.7399 64.4045 24.6399 65.6745 24.6399C66.3045 24.6399 66.8345 24.4299 67.3345 24.1199L67.7345 24.8599C67.1645 25.2299 66.4445 25.5399 65.5445 25.5399C63.7645 25.5399 62.3545 24.2399 62.3545 22.0599" fill="#2E2D29"/>
<path d="M69.4945 22.95V18.73H70.6345V22.8C70.6345 24.05 71.0045 24.58 71.8845 24.58C72.5645 24.58 73.0445 24.24 73.6745 23.46V18.74H74.7945V25.39H73.8645L73.7645 24.35H73.7245C73.1045 25.08 72.4545 25.55 71.5345 25.55C70.1245 25.55 69.4945 24.65 69.4945 22.95Z" fill="#2E2D29"/>
<path d="M76.8445 18.7299H77.7745L77.8745 19.9299H77.9145C78.3645 19.0999 79.0545 18.5599 79.8045 18.5599C80.0945 18.5599 80.2945 18.5999 80.5145 18.6999L80.2945 19.6899C80.0745 19.6199 79.9245 19.5799 79.6545 19.5799C79.0945 19.5799 78.4245 19.9899 77.9745 21.1099V25.3799H76.8545V18.7299H76.8445Z" fill="#2E2D29"/>
<path d="M85.9945 22.0799C85.9945 20.5499 85.2245 19.5099 84.0745 19.5099C82.9245 19.5099 82.1545 20.5499 82.1545 22.0799C82.1545 23.6099 82.9345 24.6299 84.0745 24.6299C85.2145 24.6299 85.9945 23.5999 85.9945 22.0799ZM80.9945 22.0799C80.9945 19.8499 82.4445 18.5699 84.0745 18.5699C85.7045 18.5699 87.1545 19.8399 87.1545 22.0799C87.1545 24.3199 85.7045 25.5599 84.0745 25.5599C82.4445 25.5599 80.9945 24.2899 80.9945 22.0799Z" fill="#2E2D29"/>
<path d="M88.0645 24.6399L88.6245 23.8899C89.2045 24.3599 89.7845 24.6799 90.5845 24.6799C91.4645 24.6799 91.9045 24.2099 91.9045 23.6399C91.9045 22.9599 91.1145 22.6499 90.3845 22.3799C89.4345 22.0399 88.3945 21.5899 88.3945 20.4599C88.3945 19.3299 89.2445 18.5699 90.6845 18.5699C91.5245 18.5699 92.2445 18.9099 92.7545 19.3199L92.2245 20.0299C91.7745 19.6899 91.2945 19.4399 90.7045 19.4399C89.8645 19.4399 89.4845 19.8899 89.4845 20.3999C89.4845 21.0299 90.2145 21.2599 90.9645 21.5499C91.9245 21.9099 92.9945 22.2999 92.9945 23.5599C92.9945 24.6399 92.1345 25.5399 90.5545 25.5399C89.6045 25.5399 88.7045 25.1399 88.0745 24.6199" fill="#2E2D29"/>
<path d="M94.0545 22.0799C94.0545 19.8499 95.5445 18.5699 97.2545 18.5699C98.1345 18.5699 98.7345 18.9299 99.1945 19.3499L98.6145 20.0899C98.2345 19.7499 97.8245 19.4999 97.2845 19.4999C96.0745 19.4999 95.2045 20.5399 95.2045 22.0699C95.2045 23.5999 96.0445 24.6199 97.2545 24.6199C97.8745 24.6199 98.4045 24.3199 98.8145 23.9499L99.3045 24.6999C98.7045 25.2299 97.9545 25.5499 97.1545 25.5499C95.3845 25.5499 94.0345 24.2799 94.0345 22.0699" fill="#2E2D29"/>
<path d="M100.655 18.7399H101.775V25.3899H100.655V18.7399ZM100.445 16.6399C100.445 16.1999 100.785 15.9099 101.225 15.9099C101.665 15.9099 102.005 16.1999 102.005 16.6399C102.005 17.0799 101.665 17.3699 101.225 17.3699C100.785 17.3699 100.445 17.0699 100.445 16.6399Z" fill="#2E2D29"/>
<path d="M108.045 21.5299C108.045 20.1899 107.445 19.4599 106.405 19.4599C105.475 19.4599 104.625 20.2099 104.485 21.5299H108.045ZM103.385 22.0799C103.385 19.8999 104.855 18.5699 106.365 18.5699C108.065 18.5699 109.025 19.7899 109.025 21.6899C109.025 21.9199 109.015 22.1699 108.985 22.3299H104.495C104.575 23.7399 105.445 24.6399 106.715 24.6399C107.345 24.6399 107.875 24.4299 108.375 24.1199L108.775 24.8599C108.205 25.2299 107.485 25.5399 106.585 25.5399C104.805 25.5399 103.395 24.2399 103.395 22.0599" fill="#2E2D29"/>
<path d="M110.625 18.7299H111.555L111.655 19.6899H111.695C112.325 19.0599 113.005 18.5699 113.925 18.5699C115.325 18.5699 115.955 19.4699 115.955 21.1699V25.3899H114.835V21.3199C114.835 20.0699 114.455 19.5399 113.575 19.5399C112.895 19.5399 112.425 19.8999 111.755 20.5699V25.3899H110.635V18.7399L110.625 18.7299Z" fill="#2E2D29"/>
<path d="M117.545 22.0799C117.545 19.8499 119.035 18.5699 120.745 18.5699C121.625 18.5699 122.225 18.9299 122.685 19.3499L122.105 20.0899C121.725 19.7499 121.315 19.4999 120.775 19.4999C119.565 19.4999 118.695 20.5399 118.695 22.0699C118.695 23.5999 119.535 24.6199 120.745 24.6199C121.365 24.6199 121.895 24.3199 122.305 23.9499L122.795 24.6999C122.195 25.2299 121.435 25.5499 120.645 25.5499C118.875 25.5499 117.525 24.2799 117.525 22.0699" fill="#2E2D29"/>
<path d="M128.185 21.5299C128.185 20.1899 127.585 19.4599 126.545 19.4599C125.615 19.4599 124.765 20.2099 124.625 21.5299H128.185ZM123.525 22.0799C123.525 19.8999 124.995 18.5699 126.505 18.5699C128.205 18.5699 129.165 19.7899 129.165 21.6899C129.165 21.9199 129.155 22.1699 129.125 22.3299H124.635C124.715 23.7399 125.585 24.6399 126.855 24.6399C127.485 24.6399 128.015 24.4299 128.515 24.1199L128.915 24.8599C128.345 25.2299 127.625 25.5399 126.725 25.5399C124.945 25.5399 123.535 24.2399 123.535 22.0599" fill="#2E2D29"/>
<path d="M130.085 24.6399L130.645 23.8899C131.225 24.3599 131.805 24.6799 132.605 24.6799C133.485 24.6799 133.925 24.2099 133.925 23.6399C133.925 22.9599 133.135 22.6499 132.405 22.3799C131.455 22.0399 130.415 21.5899 130.415 20.4599C130.415 19.3299 131.265 18.5699 132.705 18.5699C133.545 18.5699 134.265 18.9099 134.775 19.3199L134.245 20.0299C133.795 19.6899 133.315 19.4399 132.725 19.4399C131.885 19.4399 131.505 19.8899 131.505 20.3999C131.505 21.0299 132.235 21.2599 132.985 21.5499C133.945 21.9099 135.015 22.2999 135.015 23.5599C135.015 24.6399 134.155 25.5399 132.575 25.5399C131.625 25.5399 130.725 25.1399 130.095 24.6199" fill="#2E2D29"/>
<path d="M140.545 16.4099H139.405V25.3899H140.545V16.4099Z" fill="#2E2D29"/>
<path d="M142.545 18.7299H143.475L143.575 19.6899H143.615C144.245 19.0599 144.925 18.5699 145.845 18.5699C147.245 18.5699 147.875 19.4699 147.875 21.1699V25.3899H146.755V21.3199C146.755 20.0699 146.375 19.5399 145.495 19.5399C144.815 19.5399 144.345 19.8999 143.675 20.5699V25.3899H142.555V18.7399L142.545 18.7299Z" fill="#2E2D29"/>
<path d="M149.185 24.6399L149.745 23.8899C150.325 24.3599 150.905 24.6799 151.705 24.6799C152.585 24.6799 153.015 24.2099 153.015 23.6399C153.015 22.9599 152.225 22.6499 151.495 22.3799C150.555 22.0399 149.515 21.5899 149.515 20.4599C149.515 19.3299 150.365 18.5699 151.805 18.5699C152.645 18.5699 153.365 18.9099 153.875 19.3199L153.345 20.0299C152.895 19.6899 152.415 19.4399 151.825 19.4399C150.995 19.4399 150.605 19.8899 150.605 20.3999C150.605 21.0299 151.335 21.2599 152.085 21.5499C153.045 21.9099 154.115 22.2999 154.115 23.5599C154.115 24.6399 153.255 25.5399 151.675 25.5399C150.725 25.5399 149.825 25.1399 149.195 24.6199" fill="#2E2D29"/>
<path d="M155.945 23.34V19.66H154.965V18.81L156.005 18.74L156.145 16.88H157.085V18.74H158.875V19.66H157.085V23.36C157.085 24.18 157.345 24.65 158.115 24.65C158.345 24.65 158.645 24.55 158.865 24.47L159.085 25.32C158.715 25.44 158.265 25.57 157.855 25.57C156.435 25.57 155.955 24.67 155.955 23.35" fill="#2E2D29"/>
<path d="M160.325 18.7399H161.445V25.3899H160.325V18.7399ZM160.115 16.6399C160.115 16.1999 160.455 15.9099 160.895 15.9099C161.335 15.9099 161.675 16.1999 161.675 16.6399C161.675 17.0799 161.335 17.3699 160.895 17.3699C160.455 17.3699 160.115 17.0699 160.115 16.6399Z" fill="#2E2D29"/>
<path d="M163.745 23.34V19.66H162.765V18.81L163.805 18.74L163.945 16.88H164.885V18.74H166.675V19.66H164.885V23.36C164.885 24.18 165.145 24.65 165.915 24.65C166.145 24.65 166.445 24.55 166.665 24.47L166.885 25.32C166.515 25.44 166.065 25.57 165.655 25.57C164.235 25.57 163.755 24.67 163.755 23.35" fill="#2E2D29"/>
<path d="M167.965 22.95V18.73H169.105V22.8C169.105 24.05 169.475 24.58 170.355 24.58C171.035 24.58 171.515 24.24 172.145 23.46V18.74H173.265V25.39H172.335L172.235 24.35H172.195C171.575 25.08 170.925 25.55 170.005 25.55C168.595 25.55 167.965 24.65 167.965 22.95Z" fill="#2E2D29"/>
<path d="M175.575 23.34V19.66H174.595V18.81L175.635 18.74L175.775 16.88H176.715V18.74H178.505V19.66H176.715V23.36C176.715 24.18 176.975 24.65 177.745 24.65C177.975 24.65 178.275 24.55 178.495 24.47L178.715 25.32C178.345 25.44 177.895 25.57 177.485 25.57C176.065 25.57 175.585 24.67 175.585 23.35" fill="#2E2D29"/>
<path d="M183.935 21.5299C183.935 20.1899 183.335 19.4599 182.295 19.4599C181.365 19.4599 180.515 20.2099 180.375 21.5299H183.935ZM179.275 22.0799C179.275 19.8999 180.745 18.5699 182.255 18.5699C183.955 18.5699 184.915 19.7899 184.915 21.6899C184.915 21.9199 184.905 22.1699 184.875 22.3299H180.385C180.465 23.7399 181.335 24.6399 182.605 24.6399C183.235 24.6399 183.765 24.4299 184.265 24.1199L184.665 24.8599C184.095 25.2299 183.375 25.5399 182.475 25.5399C180.695 25.5399 179.285 24.2399 179.285 22.0599" fill="#2E2D29"/>
<mask id="mask0_2_45" style="mask-type:luminance" maskUnits="userSpaceOnUse" x="0" y="0" width="48" height="41">
<path d="M33.1445 38.35C32.3345 37.8 32.3845 36.71 32.5645 35.89C32.6845 35.35 32.9245 34.83 33.2845 34.28C34.4145 35.1 35.6745 36.16 35.9245 37.22C36.0345 37.7 35.9045 38.05 35.5045 38.33C35.1845 38.55 34.7545 38.67 34.3045 38.67C33.8545 38.67 33.4545 38.55 33.1445 38.34M24.3745 20.92C24.6845 17.9 25.9645 16.07 27.7945 16.04H27.8345C28.9945 16.04 30.1145 16.81 30.2345 17.69C30.4345 19.14 27.9245 20.33 25.7145 20.91C25.2545 21.03 24.8045 21.13 24.3545 21.21C24.3545 21.11 24.3645 21.01 24.3745 20.91M16.5545 19.72C15.5345 18.67 15.1745 17.25 15.5845 15.82C16.2345 13.56 18.5845 11.72 21.8945 10.9C23.7245 10.45 25.4545 10.22 27.0345 10.22C31.7145 10.22 34.0345 12.19 35.0045 13.36C36.7245 15.44 37.0245 18.27 35.8145 20.91C34.4545 23.87 31.4545 26.16 27.3445 27.38C25.8945 26.04 24.9845 24.71 24.5845 23.32C25.1345 23.22 25.6945 23.1 26.2445 22.96C32.2145 21.4 32.4945 18.55 32.3345 17.4C32.0745 15.47 30.0545 13.91 27.8245 13.91H27.7445C26.6245 13.93 22.8945 14.47 22.2545 20.69C22.2245 20.95 22.2145 21.2 22.2045 21.46C22.0245 21.46 21.8345 21.47 21.6545 21.47C19.4345 21.47 17.6745 20.86 16.5445 19.72M7.44454 24.47C4.34454 22.09 2.41454 18.87 2.16454 15.63C1.93454 12.67 3.08453 9.92 5.50453 7.7C8.35453 5.08 12.9145 3.26 18.6845 2.46C20.3045 2.23 21.9845 2.12 23.6745 2.12C27.2845 2.12 30.7845 2.64 33.7845 3.63C37.5145 4.85 42.4245 7.44 44.5945 12.83C47.6245 20.32 42.4545 24.08 37.4645 27.71C35.7645 28.95 34.1545 30.12 32.8745 31.42C32.6345 31.26 32.3845 31.1 32.1345 30.93L32.0345 30.86C31.1245 30.26 30.1745 29.64 29.2745 28.98C33.3445 27.48 36.2545 25.01 37.7245 21.81C39.2945 18.4 38.8845 14.74 36.6245 12.01C34.5145 9.46 31.1945 8.11 27.0145 8.11C25.2445 8.11 23.3445 8.36 21.3745 8.84C17.3245 9.84 14.3945 12.23 13.5345 15.24C12.9245 17.39 13.4845 19.62 15.0245 21.21C16.5545 22.77 18.8545 23.6 21.6745 23.6C21.9245 23.6 22.1745 23.6 22.4245 23.58C22.7945 25.12 23.6045 26.56 24.8945 27.97C23.4545 28.23 21.9145 28.38 20.3145 28.41C20.1745 28.41 20.0245 28.41 19.8845 28.41C15.1645 28.41 10.7445 27.01 7.43454 24.47M18.3845 0.349998C12.0945 1.23 7.27454 3.17 4.05454 6.13C1.18454 8.77 -0.245464 12.2 0.0345356 15.79C0.334536 19.63 2.56453 23.4 6.14453 26.15C9.82453 28.97 14.7045 30.53 19.8845 30.53C20.0445 30.53 20.1945 30.53 20.3545 30.53C22.6345 30.49 24.7945 30.22 26.7845 29.73C28.1045 30.81 29.5645 31.77 30.8645 32.63C30.8645 32.63 31.3045 32.92 31.5145 33.05C31.0045 33.82 30.6645 34.59 30.4845 35.39C30.0245 37.43 30.5545 39.13 31.9345 40.07C32.5945 40.52 33.4245 40.77 34.2845 40.77C35.1445 40.77 36.0045 40.52 36.6845 40.06C37.8045 39.29 38.2845 38.05 37.9845 36.72C37.5945 35.02 36.1045 33.7 34.6645 32.64C35.7945 31.55 37.2145 30.52 38.7245 29.42C43.8445 25.69 50.2245 21.06 46.5745 12.03C44.6045 7.16 40.4145 3.56 34.4545 1.61C31.2345 0.559999 27.5045 0 23.6645 0C21.8845 0 20.1145 0.119999 18.3945 0.359999" fill="white"/>
</mask>
<g mask="url(#mask0_2_45)">
<path d="M50.2345 0.0200195H-0.215469V40.81H50.2345V0.0200195Z" fill="url(#paint0_linear_2_45)"/>
</g>
<defs>
<linearGradient id="paint0_linear_2_45" x1="2.35643" y1="22.3705" x2="49.9864" y2="22.3705" gradientUnits="userSpaceOnUse">
<stop stop-color="#98C3C8"/>
<stop offset="0.11" stop-color="#98C3C8"/>
<stop offset="0.48" stop-color="#66416A"/>
<stop offset="1" stop-color="#A90533"/>
</linearGradient>
</defs>
</svg>
